# xmcd
#
# Track frame offsets:
#	180
#	27410
#	52900
#	70726
#	99716
#	121907
#	143300
#	167458
#	187191
#	217447
#	238590
#	262520
#
# Disc length: 3811 seconds
#
# Revision: 1
# Processed by: cddbd v1.4PL0 Copyright (c) Steve Scherf et al.
# Submitted via: EasyCDDAExtractor 5.0.6
#
DISCID=a20ee10c
DTITLE=Cooke and Green - Bad Albert's Live
DYEAR=1996
DGENRE=Blues
TTITLE0=Oh Baby
TTITLE1=Just Your Fool
TTITLE2=Williemae
TTITLE3=Where Do I Go From Here
TTITLE4=Evil
TTITLE5=Trouble In Mind
TTITLE6=Good Morning Little School Girl
TTITLE7=Ophelia
TTITLE8=Ginger Man
TTITLE9=Cross Roads
TTITLE10=Mellow Down Easy
TTITLE11=Southern Flood Blues
EXTD=
EXTT0=
EXTT1=
EXTT2=
EXTT3=
EXTT4=
EXTT5=
EXTT6=
EXTT7=
EXTT8=
EXTT9=
EXTT10=
EXTT11=
PLAYORDER=
